<?xml version="1.0" encoding="UTF-8" standalone="no" ?>
<!DOCTYPE svg PUBLIC "-//W3C//DTD SVG 1.1//EN" "http://www.w3.org/Graphics/SVG/1.1/DTD/svg11.dtd">
<svg xmlns="http://www.w3.org/2000/svg" xmlns:xlink="http://www.w3.org/1999/xlink" version="1.1" width="350" height="350" viewBox="0 0 411.76 411.76" xml:space="preserve">
<desc>Created with Fabric.js 3.6.3</desc>
<defs>
</defs>
<g transform="matrix(3.47 0 0 3.47 206.14 202.55)"  >
<path style="stroke: none; stroke-width: 1; stroke-dasharray: none; stroke-linecap: butt; stroke-dashoffset: 0; stroke-linejoin: miter; stroke-miterlimit: 4; fill: rgb(129,161,193); fill-rule: nonzero; opacity: 1;"  transform=" translate(-43.25, -54.53)" d="M 35.684432 2.414371 C 51.596051 6.4730319 61.046468 12.37858 63.185587 16.938833 C 65.790075 22.491175 58.1583 26.21135 40.2224 22.7325 C 30.956 20.9349 26.2183 22.203 24.6233 24.3817 C 17.569 34.0071 42.023 50.4654 53.3936 57.1938 C -1.82031 43.4302 -27.0365 81.1662 44.5521 96.697 c 6.1236 1.3288 17.8718 1.8044 17.8415 3.568 c -0.0034 1.896 -30.1831 2.054 -46.1025 2.54 c 10.858 2.904 36.9642 4.88 53.9391 3.271 c 16.4994 -1.561 23.7055 -7.1632 2.8966 -12.2828 C 62.3868 91.1525 20.2969 83.1695 24.7312 74.6638 C 31.2089 62.2426 59.2036 65.234 75.5142 63.5376 C 35.4138 35.97 26.316 29.4744 80.7341 36.5703 C 94.9709 39.7305 74.712649 16.562009 53.473749 6.8725691 C 48.485702 4.8931821 41.839525 3.3641875 35.684432 2.414371" stroke-linecap="round" />
</g>
</svg>